<svg width="25" height="25" viewBox="0 0 25 25" fill="none" xmlns="http://www.w3.org/2000/svg">
<path d="M21.0146 16.7216V8.72158C21.0143 8.37086 20.9217 8.02639 20.7462 7.72274C20.5707 7.4191 20.3184 7.16694 20.0146 6.99158L13.0146 2.99158C12.7106 2.81605 12.3657 2.72363 12.0146 2.72363C11.6636 2.72363 11.3187 2.81605 11.0146 2.99158L4.01465 6.99158C3.71091 7.16694 3.45863 7.4191 3.28311 7.72274C3.10759 8.02639 3.01501 8.37086 3.01465 8.72158V16.7216C3.01501 17.0723 3.10759 17.4168 3.28311 17.7204C3.45863 18.0241 3.71091 18.2762 4.01465 18.4516L11.0146 22.4516C11.3187 22.6271 11.6636 22.7195 12.0146 22.7195C12.3657 22.7195 12.7106 22.6271 13.0146 22.4516L20.0146 18.4516C20.3184 18.2762 20.5707 18.0241 20.7462 17.7204C20.9217 17.4168 21.0143 17.0723 21.0146 16.7216Z" stroke="black" stroke-width="2" stroke-linecap="round" stroke-linejoin="round"/>
<path d="M3.28467 7.68164L12.0147 12.7316L20.7447 7.68164" stroke="black" stroke-width="2" stroke-linecap="round" stroke-linejoin="round"/>
<path d="M12.0146 22.8017V12.7217" stroke="black" stroke-width="2" stroke-linecap="round" stroke-linejoin="round"/>
</svg>
