<svg width="25" height="25" viewBox="0 0 25 25" fill="none" xmlns="http://www.w3.org/2000/svg">
<path d="M7.61792 15.6348H10.6179C10.8831 15.6348 11.1375 15.5294 11.325 15.3419C11.5126 15.1543 11.6179 14.9 11.6179 14.6348C11.6179 14.3695 11.5126 14.1152 11.325 13.9277C11.1375 13.7401 10.8831 13.6348 10.6179 13.6348H7.61792C7.3527 13.6348 7.09835 13.7401 6.91081 13.9277C6.72328 14.1152 6.61792 14.3695 6.61792 14.6348C6.61792 14.9 6.72328 15.1543 6.91081 15.3419C7.09835 15.5294 7.3527 15.6348 7.61792 15.6348ZM19.6179 5.63477H5.61792C4.82227 5.63477 4.05921 5.95084 3.4966 6.51345C2.93399 7.07605 2.61792 7.83912 2.61792 8.63477V17.6348C2.61792 18.4304 2.93399 19.1935 3.4966 19.7561C4.05921 20.3187 4.82227 20.6348 5.61792 20.6348H19.6179C20.4136 20.6348 21.1766 20.3187 21.7392 19.7561C22.3018 19.1935 22.6179 18.4304 22.6179 17.6348V8.63477C22.6179 7.83912 22.3018 7.07605 21.7392 6.51345C21.1766 5.95084 20.4136 5.63477 19.6179 5.63477ZM20.6179 17.6348C20.6179 17.9 20.5126 18.1543 20.325 18.3419C20.1375 18.5294 19.8831 18.6348 19.6179 18.6348H5.61792C5.3527 18.6348 5.09835 18.5294 4.91081 18.3419C4.72328 18.1543 4.61792 17.9 4.61792 17.6348V11.6348H20.6179V17.6348ZM20.6179 9.63477H4.61792V8.63477C4.61792 8.36955 4.72328 8.1152 4.91081 7.92766C5.09835 7.74012 5.3527 7.63477 5.61792 7.63477H19.6179C19.8831 7.63477 20.1375 7.74012 20.325 7.92766C20.5126 8.1152 20.6179 8.36955 20.6179 8.63477V9.63477Z" fill="black"/>
</svg>
