<svg width="24" height="24" viewBox="0 0 24 24" fill="none" xmlns="http://www.w3.org/2000/svg">
<path d="M20.9201 11.6C18.9001 6.91 15.1001 4 11.0001 4C6.90007 4 3.10007 6.91 1.08007 11.6C1.025 11.7262 0.996582 11.8623 0.996582 12C0.996582 12.1377 1.025 12.2738 1.08007 12.4C3.10007 17.09 6.90007 20 11.0001 20C15.1001 20 18.9001 17.09 20.9201 12.4C20.9752 12.2738 21.0036 12.1377 21.0036 12C21.0036 11.8623 20.9752 11.7262 20.9201 11.6ZM11.0001 18C7.83007 18 4.83007 15.71 3.10007 12C4.83007 8.29 7.83007 6 11.0001 6C14.1701 6 17.1701 8.29 18.9001 12C17.1701 15.71 14.1701 18 11.0001 18ZM11.0001 8C10.209 8 9.43556 8.2346 8.77779 8.67412C8.11999 9.11365 7.6073 9.73836 7.30455 10.4693C7.0018 11.2002 6.92258 12.0044 7.07692 12.7804C7.23126 13.5563 7.61223 14.269 8.17164 14.8284C8.73105 15.3878 9.44376 15.7688 10.2197 15.9231C10.9957 16.0775 11.7999 15.9983 12.5308 15.6955C13.2617 15.3928 13.8865 14.8801 14.326 14.2223C14.7655 13.5645 15.0001 12.7911 15.0001 12C15.0001 10.9391 14.5787 9.92172 13.8285 9.17157C13.0784 8.42143 12.061 8 11.0001 8ZM11.0001 14C10.6045 14 10.2179 13.8827 9.88896 13.6629C9.56006 13.4432 9.30366 13.1308 9.15226 12.7654C9.00096 12.3999 8.96132 11.9978 9.03846 11.6098C9.11566 11.2219 9.30616 10.8655 9.58586 10.5858C9.86556 10.3061 10.222 10.1156 10.6099 10.0384C10.9979 9.96126 11.4 10.0009 11.7655 10.1522C12.1309 10.3036 12.4433 10.56 12.663 10.8889C12.8828 11.2178 13.0001 11.6044 13.0001 12C13.0001 12.5304 12.7894 13.0391 12.4143 13.4142C12.0392 13.7893 11.5305 14 11.0001 14Z" fill="#1F1F1F" fill-opacity="0.5"/>
<path d="M21.5 2.5L1.5 21.5" stroke="#898989" stroke-width="2.5" stroke-linecap="round"/>
</svg>
