<svg width="126" height="42" viewBox="0 0 126 42" fill="none" xmlns="http://www.w3.org/2000/svg">
<g clip-path="url(#clip0_910_15354)">
<path fill-rule="evenodd" clip-rule="evenodd" d="M26.2039 12.1015C24.5177 10.9636 22.5352 10.3562 20.5073 10.3562V0C24.5632 0 28.5281 1.21476 31.9005 3.49066C35.2729 5.76655 37.9013 9.00138 39.4535 12.786C41.0056 16.5707 41.4117 20.7353 40.6205 24.7531C39.8292 28.7709 37.8761 32.4615 35.008 35.3581C32.1401 38.2548 28.486 40.2275 24.508 41.0267C20.53 41.8259 16.4066 41.4157 12.6594 39.848C8.91225 38.2803 5.70946 35.6256 3.4561 32.2195C1.20273 28.8133 0 24.8088 0 20.7123H10.2536C10.2536 22.7606 10.855 24.7628 11.9817 26.4659C13.1083 28.169 14.7098 29.4963 16.5834 30.2802C18.4569 31.064 20.5186 31.2691 22.5076 30.8695C24.4966 30.4699 26.3236 29.4836 27.7577 28.0353C29.1917 26.5869 30.1682 24.7416 30.5638 22.7327C30.9595 20.7238 30.7565 18.6415 29.9804 16.7492C29.2043 14.8569 27.8901 13.2394 26.2039 12.1015Z" fill="#005DFF"/>
<path d="M7.65256 12.4968C8.17242 13.0223 8.8225 13.285 9.6028 13.285C10.3831 13.285 11.0229 13.0223 11.5213 12.4968C12.0206 11.9495 12.2698 11.2926 12.2698 10.5263C12.2698 9.73812 12.0206 9.08125 11.5213 8.5558C11.0229 8.0303 10.3831 7.76758 9.6028 7.76758C8.8225 7.76758 8.17242 8.0303 7.65256 8.5558C7.15321 9.08125 6.90405 9.73812 6.90405 10.5263C6.90405 11.2926 7.15321 11.9495 7.65256 12.4968Z" fill="#005DFF"/>
<path d="M52.4534 30.9287V7.74219H57.5585V26.3966H67.7364V30.9287H52.4534Z" fill="#005DFF"/>
<path fill-rule="evenodd" clip-rule="evenodd" d="M76.9303 31.2902C75.3045 31.2902 73.8305 30.929 72.508 30.2065C71.2074 29.4621 70.1777 28.4549 69.4189 27.1849C68.6603 25.9151 68.2809 24.4919 68.2809 22.9155C68.2809 21.3391 68.6603 19.9269 69.4189 18.6789C70.1777 17.4309 71.2074 16.4456 72.508 15.7232C73.8087 14.9786 75.2829 14.6064 76.9303 14.6064C78.5779 14.6064 80.0519 14.9678 81.3526 15.6902C82.6533 16.4128 83.6831 17.409 84.4417 18.6789C85.2005 19.9269 85.5799 21.3391 85.5799 22.9155C85.5799 24.4919 85.2005 25.9151 84.4417 27.1849C83.6831 28.4549 82.6533 29.4621 81.3526 30.2065C80.0519 30.929 78.5779 31.2902 76.9303 31.2902ZM76.9303 26.7252C77.6457 26.7252 78.2744 26.572 78.8164 26.2654C79.3583 25.937 79.7702 25.4882 80.0519 24.9189C80.3554 24.3278 80.5072 23.6599 80.5072 22.9155C80.5072 22.1711 80.3554 21.5252 80.0519 20.9779C79.7484 20.4086 79.3258 19.9707 78.7838 19.6642C78.2635 19.3357 77.6457 19.1715 76.9303 19.1715C76.2367 19.1715 75.6189 19.3357 75.0769 19.6642C74.535 19.9707 74.1122 20.4086 73.8087 20.9779C73.5052 21.5471 73.3536 22.2039 73.3536 22.9483C73.3536 23.6709 73.5052 24.3278 73.8087 24.9189C74.1122 25.4882 74.535 25.937 75.0769 26.2654C75.6189 26.572 76.2367 26.7252 76.9303 26.7252Z" fill="#005DFF"/>
<path fill-rule="evenodd" clip-rule="evenodd" d="M89.5196 37.1684C90.8419 37.7814 92.3702 38.0879 94.1045 38.0879C95.7953 38.0879 97.302 37.7486 98.6243 37.0698C99.9467 36.3911 100.987 35.4497 101.746 34.2455C102.505 33.0413 102.884 31.6181 102.884 29.9759V14.9672H98.0064V16.0396C97.6437 15.7311 97.2317 15.4722 96.7709 15.2627C95.9253 14.8467 94.9607 14.6387 93.8769 14.6387C92.4244 14.6387 91.1345 14.989 90.0074 15.6896C88.88 16.3684 87.9913 17.3098 87.3409 18.5141C86.6905 19.6964 86.3655 21.0319 86.3655 22.5209C86.3655 23.9878 86.6905 25.3233 87.3409 26.5275C87.9913 27.7318 88.88 28.6842 90.0074 29.3848C91.1345 30.0854 92.4244 30.4358 93.8769 30.4358C94.939 30.4358 95.9037 30.2278 96.7709 29.8118C97.1909 29.6103 97.5702 29.3728 97.9089 29.0993V30.1074C97.9089 31.224 97.5513 32.0888 96.8359 32.7019C96.1422 33.315 95.1775 33.6214 93.9419 33.6214C92.9447 33.6214 92.0884 33.4463 91.373 33.0959C90.6794 32.7457 90.0506 32.2311 89.487 31.5524L86.4305 34.6395C87.1892 35.7343 88.2189 36.5773 89.5196 37.1684ZM96.6082 25.5094C96.1096 25.816 95.5136 25.9692 94.8198 25.9692C94.1261 25.9692 93.5191 25.816 92.9989 25.5094C92.5002 25.2029 92.1101 24.7869 91.8283 24.2614C91.5464 23.7141 91.4055 23.1338 91.4055 22.5209C91.4055 21.864 91.5464 21.2728 91.8283 20.7474C92.1101 20.2219 92.5111 19.8059 93.0314 19.4993C93.5516 19.1928 94.1478 19.0395 94.8198 19.0395C95.5136 19.0395 96.1096 19.1928 96.6082 19.4993C97.1285 19.8059 97.5187 20.2219 97.7789 20.7474C98.0607 21.2728 98.2016 21.864 98.2016 22.5209C98.2016 23.1776 98.0607 23.7688 97.7789 24.2942C97.5187 24.7979 97.1285 25.2029 96.6082 25.5094Z" fill="#005DFF"/>
<path fill-rule="evenodd" clip-rule="evenodd" d="M113.354 31.2902C111.728 31.2902 110.254 30.929 108.932 30.2065C107.631 29.4621 106.601 28.4549 105.843 27.1849C105.084 25.9151 104.704 24.4919 104.704 22.9155C104.704 21.3391 105.084 19.9269 105.843 18.6789C106.601 17.4309 107.631 16.4456 108.932 15.7232C110.232 14.9786 111.707 14.6064 113.354 14.6064C115.001 14.6064 116.476 14.9678 117.776 15.6902C119.077 16.4128 120.106 17.409 120.865 18.6789C121.624 19.9269 122.003 21.3391 122.003 22.9155C122.003 24.4919 121.624 25.9151 120.865 27.1849C120.106 28.4549 119.077 29.4621 117.776 30.2065C116.476 30.929 115.001 31.2902 113.354 31.2902ZM113.354 26.7252C114.069 26.7252 114.698 26.572 115.24 26.2654C115.781 25.937 116.194 25.4882 116.476 24.9189C116.779 24.3278 116.931 23.6599 116.931 22.9155C116.931 22.1711 116.779 21.5252 116.476 20.9779C116.172 20.4086 115.75 19.9707 115.207 19.6642C114.687 19.3357 114.069 19.1715 113.354 19.1715C112.66 19.1715 112.042 19.3357 111.501 19.6642C110.958 19.9707 110.536 20.4086 110.232 20.9779C109.929 21.5471 109.777 22.2039 109.777 22.9483C109.777 23.6709 109.929 24.3278 110.232 24.9189C110.536 25.4882 110.958 25.937 111.501 26.2654C112.042 26.572 112.66 26.7252 113.354 26.7252Z" fill="#005DFF"/>
</g>
<defs>
<clipPath id="clip0_910_15354">
<rect width="126" height="41.4247" fill="white"/>
</clipPath>
</defs>
</svg>
