<svg width="24" height="25" viewBox="0 0 24 25" fill="none" xmlns="http://www.w3.org/2000/svg">
<path d="M23 21.6415V19.6415C22.9993 18.7552 22.7044 17.8943 22.1614 17.1938C21.6184 16.4933 20.8581 15.9931 20 15.7715" stroke="#1F1F1F" stroke-width="2" stroke-linecap="round" stroke-linejoin="round"/>
<path d="M17 21.6416V19.6416C17 18.5807 16.5786 17.5633 15.8284 16.8132C15.0783 16.063 14.0609 15.6416 13 15.6416H5C3.93913 15.6416 2.92172 16.063 2.17157 16.8132C1.42143 17.5633 1 18.5807 1 19.6416V21.6416" stroke="#1F1F1F" stroke-width="2" stroke-linecap="round" stroke-linejoin="round"/>
<path d="M16 3.77148C16.8604 3.99179 17.623 4.49219 18.1676 5.19379C18.7122 5.8954 19.0078 6.75831 19.0078 7.64648C19.0078 8.53465 18.7122 9.39756 18.1676 10.0992C17.623 10.8008 16.8604 11.3012 16 11.5215" stroke="#1F1F1F" stroke-width="2" stroke-linecap="round" stroke-linejoin="round"/>
<path d="M9 11.6416C11.2091 11.6416 13 9.85074 13 7.6416C13 5.43246 11.2091 3.6416 9 3.6416C6.79086 3.6416 5 5.43246 5 7.6416C5 9.85074 6.79086 11.6416 9 11.6416Z" stroke="#1F1F1F" stroke-width="2" stroke-linecap="round" stroke-linejoin="round"/>
</svg>
