<svg width="18" height="18" viewBox="0 0 18 18" fill="none" xmlns="http://www.w3.org/2000/svg">
<path d="M10.3458 3H9.59576C9.59576 2.60218 9.43773 2.22064 9.15642 1.93934C8.87512 1.65804 8.49359 1.5 8.09576 1.5H5.09576C4.69794 1.5 4.31641 1.65804 4.0351 1.93934C3.7538 2.22064 3.59576 2.60218 3.59576 3H2.84576C2.24903 3 1.67673 3.23705 1.25477 3.65901C0.832817 4.08097 0.595764 4.65326 0.595764 5.25V14.25C0.595764 14.8467 0.832817 15.419 1.25477 15.841C1.67673 16.2629 2.24903 16.5 2.84576 16.5H10.3458C10.9425 16.5 11.5148 16.2629 11.9368 15.841C12.3587 15.419 12.5958 14.8467 12.5958 14.25V5.25C12.5958 4.65326 12.3587 4.08097 11.9368 3.65901C11.5148 3.23705 10.9425 3 10.3458 3ZM5.09576 3H8.09576V3.75V4.5H5.09576V3ZM11.0958 14.25C11.0958 14.4489 11.0167 14.6397 10.8761 14.7803C10.7354 14.921 10.5447 15 10.3458 15H2.84576C2.64685 15 2.45609 14.921 2.31543 14.7803C2.17478 14.6397 2.09576 14.4489 2.09576 14.25V5.25C2.09576 5.05109 2.17478 4.86032 2.31543 4.71967C2.45609 4.57902 2.64685 4.5 2.84576 4.5H3.59576C3.59576 4.89782 3.7538 5.27936 4.0351 5.56066C4.31641 5.84196 4.69794 6 5.09576 6H8.09576C8.49359 6 8.87512 5.84196 9.15642 5.56066C9.43773 5.27936 9.59576 4.89782 9.59576 4.5H10.3458C10.5447 4.5 10.7354 4.57902 10.8761 4.71967C11.0167 4.86032 11.0958 5.05109 11.0958 5.25V14.25Z" fill="#1F1F1F"/>
<path d="M14.5608 11.1914L13.0298 13.0505L14.5608 14.6909M13.7953 12.9412H17.4042" stroke="#1F1F1F"  stroke-width="1.125" stroke-linecap="round"/>
</svg>
