<svg width="18" height="18" viewBox="0 0 18 18" fill="none" xmlns="http://www.w3.org/2000/svg">
<path d="M5.24378 10.877C5.14528 10.8769 5.04774 10.8963 4.95674 10.934C4.86573 10.9717 4.78304 11.0269 4.71339 11.0966C4.64374 11.1662 4.5885 11.2489 4.55082 11.3399C4.51313 11.4309 4.49375 11.5285 4.49378 11.627V12.9637C3.52706 11.8704 2.99356 10.4613 2.99378 9.00196C2.99364 8.7814 3.00685 8.56102 3.03333 8.34205C3.04547 8.24413 3.03817 8.14478 3.01184 8.04969C2.98552 7.95459 2.94069 7.86563 2.87992 7.78789C2.81915 7.71016 2.74364 7.64517 2.65771 7.59667C2.57178 7.54818 2.47713 7.51711 2.37917 7.50526C2.28122 7.4934 2.18189 7.501 2.08687 7.5276C1.99185 7.55421 1.90302 7.5993 1.82547 7.6603C1.74791 7.7213 1.68315 7.797 1.63491 7.88307C1.58666 7.96914 1.55588 8.06389 1.54431 8.16188C1.51034 8.44061 1.49346 8.72117 1.49378 9.00196C1.4948 10.7916 2.138 12.5214 3.30643 13.877H2.24378C2.04487 13.877 1.8541 13.956 1.71345 14.0966C1.5728 14.2373 1.49378 14.4281 1.49378 14.627C1.49378 14.8259 1.5728 15.0166 1.71345 15.1573C1.8541 15.2979 2.04487 15.377 2.24378 15.377H5.24378C5.36108 15.3755 5.47633 15.346 5.57993 15.291C5.68353 15.236 5.77248 15.157 5.83938 15.0606C5.84812 15.0491 5.85929 15.0405 5.86743 15.0284C5.87243 15.0209 5.87256 15.0121 5.87723 15.0045C5.91297 14.9441 5.93975 14.8788 5.95673 14.8107C5.96783 14.7725 5.97572 14.7334 5.9803 14.6938C5.98245 14.6707 5.9938 14.6507 5.9938 14.627V11.627C5.99383 11.5285 5.97445 11.4309 5.93677 11.3399C5.89909 11.2489 5.84384 11.1662 5.77419 11.0966C5.70454 11.0269 5.62184 10.9717 5.53083 10.934C5.43982 10.8963 5.34228 10.8769 5.24378 10.877ZM6.36878 4.50196H5.03193C6.12528 3.53529 7.53437 3.00179 8.99378 3.00196C9.21423 3.00143 9.43451 3.01464 9.65332 3.04152C9.75114 3.0534 9.85034 3.04589 9.94526 3.01943C10.0402 2.99297 10.129 2.94808 10.2065 2.88731C10.2841 2.82654 10.3489 2.75109 10.3973 2.66526C10.4457 2.57944 10.4768 2.48492 10.4886 2.3871C10.5005 2.28928 10.493 2.19008 10.4666 2.09516C10.4401 2.00024 10.3952 1.91147 10.3344 1.8339C10.2737 1.75633 10.1982 1.69149 10.1124 1.64309C10.0266 1.59468 9.93205 1.56365 9.83423 1.55177C9.55535 1.51813 9.27468 1.50149 8.99378 1.50196C7.20417 1.50294 5.47434 2.14609 4.11878 3.31448V2.25196C4.11878 2.05305 4.03976 1.86228 3.89911 1.72163C3.75846 1.58098 3.56769 1.50196 3.36878 1.50196C3.16987 1.50196 2.9791 1.58098 2.83845 1.72163C2.6978 1.86228 2.61878 2.05305 2.61878 2.25196V5.25196C2.6235 5.30153 2.63338 5.35048 2.64826 5.398L2.64844 5.39891C2.66665 5.4912 2.70261 5.57908 2.75432 5.65766L2.76288 5.67034C2.81244 5.74241 2.87455 5.80499 2.94626 5.85509C2.95446 5.86109 2.95853 5.87029 2.96704 5.87601C2.97776 5.8831 2.98989 5.88535 3.00083 5.89185C3.04336 5.91744 3.08843 5.93855 3.13532 5.95485C3.19868 5.97689 3.26475 5.99023 3.3317 5.99449C3.3447 5.99518 3.35564 6.00199 3.36878 6.00199H6.36878C6.56769 6.00199 6.75846 5.92297 6.89911 5.78232C7.03976 5.64166 7.11878 5.4509 7.11878 5.25199C7.11878 5.05307 7.03976 4.86231 6.89911 4.72166C6.75846 4.581 6.56769 4.50199 6.36878 4.50199V4.50196ZM15.3391 12.605C15.3209 12.5127 15.2849 12.4248 15.2332 12.3462L15.2247 12.3336C15.1751 12.2615 15.113 12.1989 15.0412 12.1488C15.033 12.1428 15.029 12.1336 15.0205 12.1279C15.0124 12.1225 15.0028 12.1224 14.9946 12.1173C14.8994 12.0644 14.7952 12.03 14.6873 12.0158C14.6635 12.0135 14.6431 12.0019 14.6188 12.0019H11.6188C11.4199 12.0019 11.2291 12.0809 11.0884 12.2216C10.9478 12.3622 10.8688 12.553 10.8688 12.7519C10.8688 12.9508 10.9478 13.1416 11.0884 13.2823C11.2291 13.4229 11.4199 13.5019 11.6188 13.5019H12.9556C11.8623 14.4686 10.4532 15.0021 8.99378 15.0019C8.77331 15.0022 8.55303 14.9888 8.33423 14.9616C8.13668 14.9377 7.93768 14.9931 7.78103 15.1159C7.62438 15.2386 7.52289 15.4185 7.4989 15.6161C7.47491 15.8136 7.53038 16.0126 7.65311 16.1693C7.77584 16.3259 7.95577 16.4274 8.15332 16.4514C8.43221 16.485 8.71287 16.5019 8.99378 16.5019C10.7834 16.501 12.5132 15.8578 13.8688 14.6894V15.752C13.8688 15.9509 13.9478 16.1416 14.0884 16.2823C14.2291 16.4229 14.4199 16.502 14.6188 16.502C14.8177 16.502 15.0085 16.4229 15.1491 16.2823C15.2898 16.1416 15.3688 15.9509 15.3688 15.752V12.752C15.3641 12.7024 15.3542 12.6535 15.3393 12.6059L15.3391 12.605ZM15.7438 4.12696C15.9427 4.12696 16.1335 4.04795 16.2741 3.90729C16.4148 3.76664 16.4938 3.57588 16.4938 3.37696C16.4938 3.17805 16.4148 2.98728 16.2741 2.84663C16.1335 2.70598 15.9427 2.62696 15.7438 2.62696H12.7438C12.695 2.63167 12.6467 2.6414 12.5999 2.65599L12.5949 2.65699C12.5038 2.67521 12.4171 2.71074 12.3394 2.76164L12.3247 2.77157C12.253 2.82105 12.1906 2.88297 12.1407 2.95441C12.1348 2.96251 12.1257 2.96649 12.1201 2.97487C12.1148 2.98292 12.1146 2.99245 12.1095 3.00064C12.056 3.09633 12.0213 3.20138 12.0073 3.31013C12.0051 3.3333 11.9938 3.35326 11.9938 3.37696V6.37696C11.9938 6.57588 12.0728 6.76664 12.2134 6.90729C12.3541 7.04795 12.5449 7.12696 12.7438 7.12696C12.9427 7.12696 13.1335 7.04795 13.2741 6.90729C13.4148 6.76664 13.4938 6.57588 13.4938 6.37696V5.0398C14.4604 6.13328 14.9939 7.54245 14.9938 9.00193C14.9939 9.22249 14.9807 9.44287 14.9542 9.66184C14.9305 9.85926 14.986 10.058 15.1086 10.2146C15.2312 10.3711 15.4109 10.4726 15.6083 10.4968C15.6387 10.5003 15.6692 10.502 15.6998 10.5019C15.883 10.5017 16.0597 10.4344 16.1966 10.3129C16.3336 10.1913 16.4213 10.0238 16.4432 9.84202C16.4772 9.56329 16.4941 9.28275 16.4938 9.00196C16.4927 7.21233 15.8495 5.48249 14.681 4.12696H15.7438Z" fill="#1F1F1F" />
</svg>
