<svg width="18" height="18" viewBox="0 0 18 18" fill="none" xmlns="http://www.w3.org/2000/svg">
<path d="M5.25 7.5H6.75C6.94891 7.5 7.13968 7.42098 7.28033 7.28033C7.42098 7.13968 7.5 6.94891 7.5 6.75C7.5 6.55109 7.42098 6.36032 7.28033 6.21967C7.13968 6.07902 6.94891 6 6.75 6H5.25C5.05109 6 4.86032 6.07902 4.71967 6.21967C4.57902 6.36032 4.5 6.55109 4.5 6.75C4.5 6.94891 4.57902 7.13968 4.71967 7.28033C4.86032 7.42098 5.05109 7.5 5.25 7.5ZM15.75 3H9.75V2.25C9.75 2.05109 9.67098 1.86032 9.53033 1.71967C9.38968 1.57902 9.19891 1.5 9 1.5C8.80109 1.5 8.61032 1.57902 8.46967 1.71967C8.32902 1.86032 8.25 2.05109 8.25 2.25V3H2.25C2.05109 3 1.86032 3.07902 1.71967 3.21967C1.57902 3.36032 1.5 3.55109 1.5 3.75V11.25C1.5 11.8467 1.73705 12.419 2.15901 12.841C2.58097 13.2629 3.15326 13.5 3.75 13.5H7.1925L5.4675 15.2175C5.3972 15.2872 5.34141 15.3702 5.30333 15.4616C5.26526 15.553 5.24565 15.651 5.24565 15.75C5.24565 15.849 5.26526 15.947 5.30333 16.0384C5.34141 16.1298 5.3972 16.2128 5.4675 16.2825C5.53722 16.3528 5.62017 16.4086 5.71157 16.4467C5.80296 16.4847 5.90099 16.5043 6 16.5043C6.09901 16.5043 6.19704 16.4847 6.28843 16.4467C6.37983 16.4086 6.46278 16.3528 6.5325 16.2825L8.25 14.5575V15.75C8.25 15.9489 8.32902 16.1397 8.46967 16.2803C8.61032 16.421 8.80109 16.5 9 16.5C9.19891 16.5 9.38968 16.421 9.53033 16.2803C9.67098 16.1397 9.75 15.9489 9.75 15.75V14.5575L11.4675 16.2825C11.5372 16.3528 11.6202 16.4086 11.7116 16.4467C11.803 16.4847 11.901 16.5043 12 16.5043C12.099 16.5043 12.197 16.4847 12.2884 16.4467C12.3798 16.4086 12.4628 16.3528 12.5325 16.2825C12.6028 16.2128 12.6586 16.1298 12.6967 16.0384C12.7347 15.947 12.7543 15.849 12.7543 15.75C12.7543 15.651 12.7347 15.553 12.6967 15.4616C12.6586 15.3702 12.6028 15.2872 12.5325 15.2175L10.8075 13.5H14.25C14.8467 13.5 15.419 13.2629 15.841 12.841C16.2629 12.419 16.5 11.8467 16.5 11.25V3.75C16.5 3.55109 16.421 3.36032 16.2803 3.21967C16.1397 3.07902 15.9489 3 15.75 3ZM15 11.25C15 11.4489 14.921 11.6397 14.7803 11.7803C14.6397 11.921 14.4489 12 14.25 12H3.75C3.55109 12 3.36032 11.921 3.21967 11.7803C3.07902 11.6397 3 11.4489 3 11.25V4.5H15V11.25ZM5.25 10.5H9.75C9.94891 10.5 10.1397 10.421 10.2803 10.2803C10.421 10.1397 10.5 9.94891 10.5 9.75C10.5 9.55109 10.421 9.36032 10.2803 9.21967C10.1397 9.07902 9.94891 9 9.75 9H5.25C5.05109 9 4.86032 9.07902 4.71967 9.21967C4.57902 9.36032 4.5 9.55109 4.5 9.75C4.5 9.94891 4.57902 10.1397 4.71967 10.2803C4.86032 10.421 5.05109 10.5 5.25 10.5Z" fill="#1F1F1F"/>
</svg>
