<svg width="18" height="18" viewBox="0 0 18 18" fill="none" xmlns="http://www.w3.org/2000/svg">
<path d="M2.25 6.75C2.44891 6.75 2.63968 6.67098 2.78033 6.53033C2.92098 6.38968 3 6.19891 3 6V3.75C3 3.55109 3.07902 3.36032 3.21967 3.21967C3.36032 3.07902 3.55109 3 3.75 3H6C6.19891 3 6.38968 2.92098 6.53033 2.78033C6.67098 2.63968 6.75 2.44891 6.75 2.25C6.75 2.05109 6.67098 1.86032 6.53033 1.71967C6.38968 1.57902 6.19891 1.5 6 1.5H3.75C3.15326 1.5 2.58097 1.73705 2.15901 2.15901C1.73705 2.58097 1.5 3.15326 1.5 3.75V6C1.5 6.19891 1.57902 6.38968 1.71967 6.53033C1.86032 6.67098 2.05109 6.75 2.25 6.75ZM6 15H3.75C3.55109 15 3.36032 14.921 3.21967 14.7803C3.07902 14.6397 3 14.4489 3 14.25V12C3 11.8011 2.92098 11.6103 2.78033 11.4697C2.63968 11.329 2.44891 11.25 2.25 11.25C2.05109 11.25 1.86032 11.329 1.71967 11.4697C1.57902 11.6103 1.5 11.8011 1.5 12V14.25C1.5 14.8467 1.73705 15.419 2.15901 15.841C2.58097 16.2629 3.15326 16.5 3.75 16.5H6C6.19891 16.5 6.38968 16.421 6.53033 16.2803C6.67098 16.1397 6.75 15.9489 6.75 15.75C6.75 15.5511 6.67098 15.3603 6.53033 15.2197C6.38968 15.079 6.19891 15 6 15ZM12.75 9.75C12.9489 9.75 13.1397 9.67098 13.2803 9.53033C13.421 9.38968 13.5 9.19891 13.5 9C13.5 8.80109 13.421 8.61032 13.2803 8.46967C13.1397 8.32902 12.9489 8.25 12.75 8.25H11.895C11.7603 7.73411 11.4906 7.26343 11.1136 6.88641C10.7366 6.50939 10.2659 6.23967 9.75 6.105V5.25C9.75 5.05109 9.67098 4.86032 9.53033 4.71967C9.38968 4.57902 9.19891 4.5 9 4.5C8.80109 4.5 8.61032 4.57902 8.46967 4.71967C8.32902 4.86032 8.25 5.05109 8.25 5.25V6.105C7.73411 6.23967 7.26343 6.50939 6.88641 6.88641C6.50939 7.26343 6.23967 7.73411 6.105 8.25H5.25C5.05109 8.25 4.86032 8.32902 4.71967 8.46967C4.57902 8.61032 4.5 8.80109 4.5 9C4.5 9.19891 4.57902 9.38968 4.71967 9.53033C4.86032 9.67098 5.05109 9.75 5.25 9.75H6.105C6.23967 10.2659 6.50939 10.7366 6.88641 11.1136C7.26343 11.4906 7.73411 11.7603 8.25 11.895V12.75C8.25 12.9489 8.32902 13.1397 8.46967 13.2803C8.61032 13.421 8.80109 13.5 9 13.5C9.19891 13.5 9.38968 13.421 9.53033 13.2803C9.67098 13.1397 9.75 12.9489 9.75 12.75V11.895C10.2659 11.7603 10.7366 11.4906 11.1136 11.1136C11.4906 10.7366 11.7603 10.2659 11.895 9.75H12.75ZM9 10.5C8.70333 10.5 8.41332 10.412 8.16665 10.2472C7.91997 10.0824 7.72771 9.84811 7.61418 9.57403C7.50065 9.29994 7.47094 8.99834 7.52882 8.70736C7.5867 8.41639 7.72956 8.14912 7.93934 7.93934C8.14912 7.72956 8.41639 7.5867 8.70736 7.52882C8.99834 7.47094 9.29994 7.50065 9.57403 7.61418C9.84811 7.72771 10.0824 7.91997 10.2472 8.16665C10.412 8.41332 10.5 8.70333 10.5 9C10.5 9.39782 10.342 9.77936 10.0607 10.0607C9.77936 10.342 9.39782 10.5 9 10.5ZM15.75 11.25C15.5511 11.25 15.3603 11.329 15.2197 11.4697C15.079 11.6103 15 11.8011 15 12V14.25C15 14.4489 14.921 14.6397 14.7803 14.7803C14.6397 14.921 14.4489 15 14.25 15H12C11.8011 15 11.6103 15.079 11.4697 15.2197C11.329 15.3603 11.25 15.5511 11.25 15.75C11.25 15.9489 11.329 16.1397 11.4697 16.2803C11.6103 16.421 11.8011 16.5 12 16.5H14.25C14.8467 16.5 15.419 16.2629 15.841 15.841C16.2629 15.419 16.5 14.8467 16.5 14.25V12C16.5 11.8011 16.421 11.6103 16.2803 11.4697C16.1397 11.329 15.9489 11.25 15.75 11.25ZM14.25 1.5H12C11.8011 1.5 11.6103 1.57902 11.4697 1.71967C11.329 1.86032 11.25 2.05109 11.25 2.25C11.25 2.44891 11.329 2.63968 11.4697 2.78033C11.6103 2.92098 11.8011 3 12 3H14.25C14.4489 3 14.6397 3.07902 14.7803 3.21967C14.921 3.36032 15 3.55109 15 3.75V6C15 6.19891 15.079 6.38968 15.2197 6.53033C15.3603 6.67098 15.5511 6.75 15.75 6.75C15.9489 6.75 16.1397 6.67098 16.2803 6.53033C16.421 6.38968 16.5 6.19891 16.5 6V3.75C16.5 3.15326 16.2629 2.58097 15.841 2.15901C15.419 1.73705 14.8467 1.5 14.25 1.5Z" fill="#1F1F1F" />
</svg>
