<svg width="18" height="18" viewBox="0 0 18 18" fill="none" xmlns="http://www.w3.org/2000/svg">
<path d="M14.25 1.5H3.75C3.15326 1.5 2.58097 1.73705 2.15901 2.15901C1.73705 2.58097 1.5 3.15326 1.5 3.75V14.25C1.5 14.8467 1.73705 15.419 2.15901 15.841C2.58097 16.2629 3.15326 16.5 3.75 16.5H14.25C14.8467 16.5 15.419 16.2629 15.841 15.841C16.2629 15.419 16.5 14.8467 16.5 14.25V3.75C16.5 3.15326 16.2629 2.58097 15.841 2.15901C15.419 1.73705 14.8467 1.5 14.25 1.5ZM7.5 3H10.5V5.3475L9.4125 4.5975C9.29004 4.51685 9.14663 4.47387 9 4.47387C8.85337 4.47387 8.70996 4.51685 8.5875 4.5975L7.5 5.3475V3ZM15 14.25C15 14.4489 14.921 14.6397 14.7803 14.7803C14.6397 14.921 14.4489 15 14.25 15H3.75C3.55109 15 3.36032 14.921 3.21967 14.7803C3.07902 14.6397 3 14.4489 3 14.25V3.75C3 3.55109 3.07902 3.36032 3.21967 3.21967C3.36032 3.07902 3.55109 3 3.75 3H6V6.75C6.00036 6.88568 6.03752 7.01872 6.10752 7.13494C6.17752 7.25117 6.27774 7.34623 6.3975 7.41C6.51478 7.47022 6.64586 7.49846 6.77753 7.49188C6.9092 7.48529 7.03681 7.44412 7.1475 7.3725L9 6.15L10.8375 7.3725C10.9503 7.44679 11.0811 7.48923 11.216 7.49536C11.3509 7.50149 11.485 7.47107 11.6041 7.40731C11.7231 7.34355 11.8228 7.24882 11.8925 7.13312C11.9621 7.01743 11.9993 6.88506 12 6.75V3H14.25C14.4489 3 14.6397 3.07902 14.7803 3.21967C14.921 3.36032 15 3.55109 15 3.75V14.25Z" fill="#1F1F1F" />
</svg>
