<svg width="18" height="18" viewBox="0 0 18 18" fill="none" xmlns="http://www.w3.org/2000/svg">
<path d="M12.8175 2.11499C12.1277 1.54768 11.32 1.14151 10.4533 0.926123C9.58652 0.710734 8.68262 0.691557 7.80752 0.86999C6.6423 1.10536 5.57326 1.68155 4.73603 2.52545C3.8988 3.36936 3.33112 4.44294 3.10502 5.60999C2.9399 6.48503 2.96991 7.38573 3.19289 8.24784C3.41587 9.10995 3.82634 9.91224 4.39502 10.5975C4.92278 11.193 5.22529 11.9546 5.25002 12.75V15C5.25002 15.5967 5.48707 16.169 5.90903 16.591C6.33098 17.0129 6.90328 17.25 7.50002 17.25H10.5C11.0968 17.25 11.6691 17.0129 12.091 16.591C12.513 16.169 12.75 15.5967 12.75 15V12.8925C12.7752 12.0144 13.0978 11.1708 13.665 10.5C14.6589 9.27058 15.1273 7.69861 14.9686 6.12571C14.81 4.55281 14.0369 3.10611 12.8175 2.09999V2.11499ZM11.25 15C11.25 15.1989 11.171 15.3897 11.0303 15.5303C10.8897 15.671 10.6989 15.75 10.5 15.75H7.50002C7.30111 15.75 7.11034 15.671 6.96969 15.5303C6.82904 15.3897 6.75002 15.1989 6.75002 15V14.25H11.25V15ZM12.5025 9.56999C11.7484 10.4644 11.3084 11.5815 11.25 12.75H9.75002V10.5C9.75002 10.3011 9.671 10.1103 9.53035 9.96966C9.3897 9.82901 9.19893 9.74999 9.00002 9.74999C8.80111 9.74999 8.61034 9.82901 8.46969 9.96966C8.32904 10.1103 8.25002 10.3011 8.25002 10.5V12.75H6.75002C6.73023 11.6011 6.30523 10.4961 5.55002 9.62999C5.05175 9.03299 4.71669 8.31706 4.5775 7.552C4.43831 6.78695 4.49976 5.99888 4.75583 5.26464C5.01191 4.5304 5.45388 3.87505 6.03866 3.36248C6.62343 2.84992 7.33105 2.49764 8.09252 2.33999C8.74693 2.20525 9.42314 2.21792 10.072 2.37709C10.7209 2.53626 11.3263 2.83793 11.8441 3.2602C12.3618 3.68248 12.7791 4.21475 13.0655 4.81838C13.352 5.42201 13.5004 6.08185 13.5 6.74999C13.5056 7.77739 13.1528 8.77459 12.5025 9.56999Z" fill="#1F1F1F" />
</svg>
